<svg width="1024" height="1024" viewBox="0 0 1024 1024" fill="none" xmlns="http://www.w3.org/2000/svg">
  <defs>
    <linearGradient id="bg" x1="146" y1="128" x2="856" y2="902" gradientUnits="userSpaceOnUse">
      <stop stop-color="#0F172A"/>
      <stop offset="0.56" stop-color="#13203F"/>
      <stop offset="1" stop-color="#1D4ED8"/>
    </linearGradient>
    <linearGradient id="panel" x1="328" y1="262" x2="696" y2="748" gradientUnits="userSpaceOnUse">
      <stop stop-color="#60A5FA"/>
      <stop offset="1" stop-color="#2563EB"/>
    </linearGradient>
    <linearGradient id="glow" x1="254" y1="220" x2="774" y2="786" gradientUnits="userSpaceOnUse">
      <stop stop-color="#E0F2FE" stop-opacity="0.72"/>
      <stop offset="1" stop-color="#A7F3D0" stop-opacity="0.14"/>
    </linearGradient>
    <filter id="blur" x="110" y="104" width="804" height="816" filterUnits="userSpaceOnUse" color-interpolation-filters="sRGB">
      <feGaussianBlur stdDeviation="40"/>
    </filter>
  </defs>
  <rect x="96" y="96" width="832" height="832" rx="236" fill="url(#bg)"/>
  <rect x="112" y="112" width="800" height="800" rx="220" stroke="white" stroke-opacity="0.09" stroke-width="12"/>
  <g filter="url(#blur)">
    <circle cx="288" cy="284" r="128" fill="#60A5FA" fill-opacity="0.26"/>
    <circle cx="748" cy="734" r="150" fill="#6EE7B7" fill-opacity="0.24"/>
  </g>
  <rect x="284" y="224" width="456" height="576" rx="148" fill="url(#glow)" fill-opacity="0.32"/>
  <rect x="326" y="264" width="372" height="496" rx="116" fill="url(#panel)"/>
  <rect x="380" y="332" width="264" height="70" rx="35" fill="white" fill-opacity="0.18"/>
  <rect x="380" y="434" width="160" height="34" rx="17" fill="white" fill-opacity="0.22"/>
  <rect x="380" y="492" width="214" height="34" rx="17" fill="white" fill-opacity="0.18"/>
  <path d="M424 620L510 534L602 582L606 666L500 712L424 620Z" fill="#EFF6FF"/>
  <path d="M510 534L602 582" stroke="#1D4ED8" stroke-width="28" stroke-linecap="round"/>
  <path d="M510 534L424 620" stroke="#1D4ED8" stroke-width="28" stroke-linecap="round"/>
  <path d="M424 620L500 712" stroke="#1D4ED8" stroke-width="28" stroke-linecap="round"/>
  <path d="M602 582L606 666" stroke="#1D4ED8" stroke-width="28" stroke-linecap="round"/>
  <path d="M606 666L500 712" stroke="#1D4ED8" stroke-width="28" stroke-linecap="round"/>
  <circle cx="510" cy="534" r="28" fill="#0F172A"/>
  <circle cx="602" cy="582" r="28" fill="#0F172A"/>
  <circle cx="424" cy="620" r="28" fill="#0F172A"/>
  <circle cx="606" cy="666" r="28" fill="#0F172A"/>
  <circle cx="500" cy="712" r="28" fill="#0F172A"/>
</svg>
